<?xml version="1.0" standalone="no"?><!DOCTYPE svg PUBLIC "-//W3C//DTD SVG 1.1//EN" "http://www.w3.org/Graphics/SVG/1.1/DTD/svg11.dtd"><svg t="1547619646550" class="icon" style="" viewBox="0 0 1024 1024" version="1.1" xmlns="http://www.w3.org/2000/svg" p-id="19437" xmlns:xlink="http://www.w3.org/1999/xlink" width="200" height="200"><defs><style type="text/css"></style></defs><path d="M420.977778 601.125926c-102.4 0-180.148148-77.748148-180.148148-180.148148s77.748148-180.148148 180.148148-180.148148 180.148148 77.748148 180.148148 180.148148-77.748148 180.148148-180.148148 180.148148z m0-58.785185c66.37037 0 119.466667-54.992593 119.466666-119.466667 0-66.37037-54.992593-119.466667-119.466666-119.466667-66.37037 0-119.466667 54.992593-119.466667 119.466667s53.096296 119.466667 119.466667 119.466667z m0 0" fill="#2c2c2c" p-id="19438"></path><path d="M420.977778 1022.103704C138.42963 794.548148 0 595.437037 0 420.977778 0 163.081481 199.111111 0 420.977778 0s420.977778 163.081481 420.977778 420.977778c0 174.459259-138.42963 373.57037-420.977778 601.125926z m360.296296-601.125926c0-210.488889-155.496296-360.296296-360.296296-360.296297s-360.296296 149.807407-360.296297 360.296297c0 144.118519 119.466667 318.577778 360.296297 523.377778 240.82963-204.8 360.296296-379.259259 360.296296-523.377778z m0 0" fill="#2c2c2c" p-id="19439"></path></svg>