<?xml version="1.0" standalone="no"?><!DOCTYPE svg PUBLIC "-//W3C//DTD SVG 1.1//EN" "http://www.w3.org/Graphics/SVG/1.1/DTD/svg11.dtd"><svg t="1547618832828" class="icon" style="" viewBox="0 0 2792 1024" version="1.1" xmlns="http://www.w3.org/2000/svg" p-id="3820" xmlns:xlink="http://www.w3.org/1999/xlink" width="545.3125" height="200"><defs><style type="text/css"></style></defs><path d="M512 46.545455C254.929455 46.545455 46.545455 254.929455 46.545455 512s208.384 465.454545 465.454545 465.454545h1768.727273c257.070545 0 465.454545-208.384 465.454545-465.454545S2537.797818 46.545455 2280.727273 46.545455H512z m0-46.545455h1768.727273c282.763636 0 512 229.236364 512 512s-229.236364 512-512 512H512C229.236364 1024 0 794.763636 0 512S229.236364 0 512 0z" fill="#B3B3B3" p-id="3821"></path><path d="M1029.957818 501.015273v-234.589091h-422.818909v50.827636h368.64v132.933818h-292.119273V373.666909h-53.620363v290.443636c0 49.152 23.458909 73.728 70.935272 73.728h308.317091c22.900364-1.117091 40.773818-7.819636 54.178909-20.107636 11.729455-12.846545 21.224727-54.737455 27.927273-125.114182l-51.944727-16.756363c-3.351273 58.647273-8.936727 92.16-17.873455 100.538181a41.425455 41.425455 0 0 1-27.368727 10.053819h-278.714182c-21.224727 0-31.837091-10.612364-31.837091-31.837091v-153.6h346.298182z m266.984727-258.606546l-48.593454 23.458909c20.107636 25.134545 39.656727 53.620364 58.088727 86.016H1186.909091v51.386182h182.644364v17.314909a510.138182 510.138182 0 0 1-8.936728 74.286546h-205.544727v51.386182h191.022545a277.876364 277.876364 0 0 1-26.810181 53.061818c-30.72 42.449455-88.808727 77.637818-174.824728 105.565091l29.044364 46.359272c86.016-26.810182 148.014545-65.349818 185.995636-115.618909 14.522182-20.107636 26.810182-43.566545 36.864-69.818182 32.395636 78.754909 106.682182 142.429091 223.976728 190.464l31.278545-50.26909c-112.267636-39.098182-182.085818-92.16-209.454545-159.744h195.490909v-51.386182h-222.301091c3.909818-22.900364 6.702545-47.476364 7.819636-74.286546v-17.314909h182.085818V351.883636h-106.123636c17.873455-29.602909 33.512727-62.557091 45.800727-99.421091l-51.944727-13.963636c-15.639273 43.566545-33.512727 81.547636-53.620364 113.384727H1323.752727l34.629818-17.314909c-19.549091-33.512727-40.215273-64.232727-61.44-92.16z m456.331637 3.351273l-38.539637 36.864c42.449455 29.602909 74.845091 57.530182 97.745455 83.781818l37.981091-37.981091c-26.810182-27.368727-59.205818-54.737455-97.186909-82.664727zM1739.869091 377.018182l-37.981091 36.305454c39.098182 30.72 69.818182 59.205818 92.16 84.898909l37.981091-37.98109c-25.134545-27.927273-55.854545-55.854545-92.16-83.223273z m59.764364 156.951273a1833.006545 1833.006545 0 0 1-88.808728 193.815272l53.061818 23.458909a1765.143273 1765.143273 0 0 0 83.223273-197.725091l-47.476363-19.54909z m66.466909-203.869091v51.944727h140.753454v119.528727h-125.114182v50.827637h125.114182v132.375272h-154.717091v51.944728h358.027637v-51.944728h-150.248728v-132.375272h123.438546v-50.827637h-123.438546V382.045091h138.519273V330.100364h-138.519273l1.675637-0.558546a711.214545 711.214545 0 0 0-37.422546-92.16l-49.152 13.963637c12.846545 25.134545 24.017455 51.386182 34.071273 78.754909h-142.987636z" fill="#B3B3B3" p-id="3822"></path></svg>