<?xml version="1.0" standalone="no"?><!DOCTYPE svg PUBLIC "-//W3C//DTD SVG 1.1//EN" "http://www.w3.org/Graphics/SVG/1.1/DTD/svg11.dtd"><svg t="1547618922742" class="icon" style="" viewBox="0 0 1024 1024" version="1.1" xmlns="http://www.w3.org/2000/svg" p-id="8438" xmlns:xlink="http://www.w3.org/1999/xlink" width="200" height="200"><defs><style type="text/css"></style></defs><path d="M848.2 791.8H176.4c-39.7 0-72-32.3-72-72V304c0-39.7 32.3-72 72-72h671.8c39.7 0 72 32.3 72 72v415.8c0 39.7-32.3 72-72 72zM176.4 280c-13.2 0-24 10.8-24 24v415.8c0 13.2 10.8 24 24 24h671.8c13.2 0 24-10.8 24-24V304c0-13.2-10.8-24-24-24H176.4z" fill="#4D4D4D" p-id="8439"></path><path d="M513 593.3c-14.7 0-29.5-4.1-42.3-12.2L115.6 357.2l25.6-40.6 355.1 223.9c10.2 6.4 23.3 6.4 33.5 0l353.6-223 25.6 40.6-353.6 223c-12.9 8.1-27.7 12.2-42.4 12.2z" fill="#4D4D4D" p-id="8440"></path></svg>