<?xml version="1.0" standalone="no"?><!DOCTYPE svg PUBLIC "-//W3C//DTD SVG 1.1//EN" "http://www.w3.org/Graphics/SVG/1.1/DTD/svg11.dtd"><svg t="1547777420789" class="icon" style="" viewBox="0 0 1024 1024" version="1.1" xmlns="http://www.w3.org/2000/svg" p-id="22581" xmlns:xlink="http://www.w3.org/1999/xlink" width="200" height="200"><defs><style type="text/css"></style></defs><path d="M512.465 72.96c-250.51 0-453.585 175.976-453.585 393.046 0 128.454 71.1 242.509 181.060 314.23-0.515 58.235 0 172.415 0 172.415s109.946-71.764 163.63-104.989c34.885 7.45 71.36 11.405 108.895 11.405 250.51 0 453.59-175.978 453.59-393.060 0-217.065-203.080-393.046-453.59-393.046v0zM295 526.1c-33.361 0-60.406-26.875-60.406-60.055 0-33.165 27.045-60.060 60.406-60.060 33.361 0 60.404 26.895 60.404 60.060 0 33.18-27.045 60.055-60.404 60.055v0zM521.67 526.1c-33.361 0-60.406-26.875-60.406-60.055 0-33.165 27.045-60.060 60.406-60.060 33.356 0 60.404 26.895 60.404 60.060 0 33.18-27.050 60.055-60.404 60.055v0zM748.335 526.1c-33.356 0-60.401-26.875-60.401-60.055 0-33.165 27.045-60.060 60.401-60.060 33.361 0 60.404 26.895 60.404 60.060 0 33.18-27.045 60.055-60.404 60.055v0zM748.335 526.1z" p-id="22582" fill="#1296db"></path></svg>