<?xml version="1.0" standalone="no"?><!DOCTYPE svg PUBLIC "-//W3C//DTD SVG 1.1//EN" "http://www.w3.org/Graphics/SVG/1.1/DTD/svg11.dtd"><svg t="1547556208070" class="icon" style="" viewBox="0 0 1024 1024" version="1.1" xmlns="http://www.w3.org/2000/svg" p-id="14345" xmlns:xlink="http://www.w3.org/1999/xlink" width="200" height="200"><defs><style type="text/css"></style></defs><path d="M511.762853 0a511.762853 511.762853 0 1 0 512.237147 511.762853A512.71144 512.71144 0 0 0 511.762853 0z m0 952.855952a440.618805 440.618805 0 1 1 440.618805-440.618805 441.567392 441.567392 0 0 1-440.618805 440.618805z" p-id="14346"></path><path d="M689.14868 280.781843l-177.385827 176.911534-176.911533-176.911534L284.576193 331.531264l176.911533 176.911534L284.576193 685.354331l50.275127 50.275127 176.911533-176.911533 177.385827 176.911533 50.275127-50.275127-176.911533-176.911533 176.911533-176.911534-50.275127-50.749421z" p-id="14347"></path></svg>