<?xml version="1.0" standalone="no"?><!DOCTYPE svg PUBLIC "-//W3C//DTD SVG 1.1//EN" "http://www.w3.org/Graphics/SVG/1.1/DTD/svg11.dtd"><svg t="1547787681444" class="icon" style="" viewBox="0 0 1024 1024" version="1.1" xmlns="http://www.w3.org/2000/svg" p-id="30157" xmlns:xlink="http://www.w3.org/1999/xlink" width="200" height="200"><defs><style type="text/css"></style></defs><path d="M512.34818709 41.37981611v66.33319317c0.82916505 0 2.34930057 0.6909705 3.04027106 1.24374755 0.41458252 0.82916505 0.6909705 1.65833009 1.10555303 2.34930057l113.18101011 229.95506839c9.39720231 19.07079257 27.22424843 32.33743097 48.09156565 36.06867367l252.89529708 44.2221284c0.82916505 0.13819456 1.79652349 0.27638797 2.62568856 0.41458253 0.41458252 0 1.10555302 0.55277708 1.24374755 0.96735845 0.27638797 1.24374756 0.6909705 2.62568854 1.10555299 3.8694361 0.27638797 0.82916505 1.10555302 3.31666017-1.24374643 6.08054328L753.49698127 603.41543174c-16.44510402 15.47774445-23.90758828 38.27977968-19.76176304 60.39084333L779.75387015 911.45019502v0.13819456c0.41458252 2.48749513-1.65833009 4.56040659-2.90207653 5.52776617-0.27638797 0.27638797-0.55277708 0.41458252-0.82916504 0.69097051-1.10555302-0.27638797-2.48749513-0.82916505-4.00763066-1.52013554l-229.95506839-114.97753475c-9.39720231-4.69860115-19.48537509-7.04790172-29.71174242-7.04790172-10.08817278 0-20.17634561 2.34930057-29.43535447 6.90970829l-231.75159189 114.97753363c-0.6909705 0.27638797-1.24374756 0.6909705-1.93471808 0.96735958-0.13819456 0-0.6909705 0.27638797-1.5201355 0.276388-0.82916505 0-1.52013553-0.13819456-1.65833009-0.276388-1.52013553-1.24374756-2.7638831-3.73124157-2.90207766-4.97498908v-0.13819457L290.96115598 664.22085758c4.28401863-22.38745274-3.1784656-45.46587597-19.89995765-61.08181495L90.1650541 434.68037172c-1.65833009-1.93471806-2.48749513-5.66596074-2.34930057-7.87706674 0.6909705-1.52013553 1.38194098-2.21110602 1.65832894-2.48749403 0.13819456-0.13819456 0.41458252-0.27638797 1.24374755-0.41458251 1.24374756-0.13819456 2.48749513-0.27638797 3.59304815-0.55277708l252.89529819-46.0186519c20.72912265-3.73124157 38.41797424-17.13607451 47.67698199-35.93048024L507.92597392 111.7206399c1.52013553-2.90207764 3.86943609-3.86943609 4.28401865-3.86943607V41.37981611m0.13819452 0c-26.53327681 0-51.27003014 15.89232694-63.70750347 40.62908139l-113.18101015 229.95506838-252.8952982 46.0186519c-28.32980145 3.59304814-49.47350662 22.94022868-58.31793185 49.47350663-7.04790172 24.73675331 0 54.86307826 19.48537509 74.34845337l182.13989185 169.97880644-47.81517654 247.64391996c-5.25137823 26.53327681 7.04790172 54.86307826 28.32980144 70.75540521 11.88469743 8.98261978 26.67147137 13.40483297 41.32005191 13.40483298 11.47011491 0 22.80203527-2.7638831 32.89020804-8.15345475l231.75159188-114.97753473 229.95506839 114.97753473c10.64094987 5.25137823 22.94022868 8.84442523 33.58117854 8.84442524 15.89232694 0 30.12632495-5.25137823 40.62908139-14.09580347 21.28189973-15.89232694 33.58117854-42.4256049 28.32980034-70.75540521l-46.01865195-247.64391996 182.13989187-171.63713651c19.48537509-19.48537509 26.53327681-47.81517654 17.68885158-74.34845338-7.04790172-26.53327681-30.12632495-46.01865303-56.6596029-49.47350664l-252.89529704-44.22212837-113.18101012-229.9550684c-10.5027553-24.73675331-37.03603213-40.76727481-63.5693101-40.76727481z" p-id="30158"></path></svg>