<?xml version="1.0" standalone="no"?><!DOCTYPE svg PUBLIC "-//W3C//DTD SVG 1.1//EN" "http://www.w3.org/Graphics/SVG/1.1/DTD/svg11.dtd"><svg t="1547554672510" class="icon" style="" viewBox="0 0 1024 1024" version="1.1" xmlns="http://www.w3.org/2000/svg" p-id="13625" xmlns:xlink="http://www.w3.org/1999/xlink" width="200" height="200"><defs><style type="text/css"></style></defs><path d="M831.668446 1023.996114 428.17986 1023.996114c-15.910715 0-41.894848-5.240095-64.082018-16.94578-28.052967-14.806992-43.502502-36.956594-43.502502-62.374615l0-536.782604 5.049664-3.88894c8.489083-6.53684 53.038308-41.813235 96.544696-94.390363 28.555601-34.506898 51.28686-69.74702 67.562892-104.743598 20.039314-43.080185 30.288913-85.911644 30.46639-127.306449l0.010364-2.414719 0.880906-2.248901c0.430089-1.142587 0.686588-5.0963 0.89386-8.271447 0.690475-10.595484 1.734607-26.595586 11.121437-40.178377 11.324823-16.390032 30.681434-24.39073 59.172263-24.458093l0.937906-0.002591 0.930133 0.133431c4.381211 0.626998 43.689046 7.424223 74.176163 52.219584 21.005719 30.864093 33.127244 72.560737 36.032938 123.934393 3.514555 62.134957-6.547204 138.684385-29.910642 227.65329l258.166316 0c4.005531-0.269454 33.562515-1.538994 54.811779 18.017117 13.740837 12.652659 20.706471 30.912025 20.70388 54.272872 0 0.260385-0.14509 26.966084-12.765363 95.194837-11.442709 61.868094-35.885257 172.34924-87.349593 347.350266-0.103636 0.343294-8.060289 25.890861-20.79197 51.267428C869.27406 1005.840384 850.576832 1023.996114 831.668446 1023.996114zM346.504337 420.569092l0 524.106627c0 15.788943 9.987918 29.064713 29.686529 39.460698 17.357733 9.158831 39.293585 13.951995 51.988994 13.951995l403.488586 0c4.326803 0 16.668553-8.292175 32.413451-39.675743 11.350732-22.622441 18.672614-45.62963 19.124726-47.061102 51.132701-173.885644 75.369273-283.393907 86.699277-344.649253 11.954411-64.63388 12.330092-90.314878 12.332683-90.567491 0.002591-15.73842-4.150621-27.584014-12.343046-35.126123-13.416974-12.349524-34.575557-11.283368-35.553621-11.226368l-1.434063 0.055704L640.646591 429.838036l6.198728-22.889304c24.495661-90.466445 35.148146-167.584576 31.660795-229.210421-2.634945-46.614172-13.26152-83.89981-31.584363-110.820554-22.740327-33.412243-50.448704-40.039764-55.621435-41.011352-18.767182 0.199499-30.830411 4.545734-36.86073 13.271884-5.313935 7.68979-6.017365 18.466638-6.580885 27.12672-0.321272 4.935664-0.606271 9.31558-1.747562 13.40402-0.511703 44.51943-11.564481 90.29156-32.866858 136.085712-17.208756 37.001934-41.129238 74.124345-71.094288 110.33476C402.742407 373.756716 363.35814 407.135277 346.504337 420.569092z" p-id="13626"></path><path d="M230.289531 1023.996114l-139.181837 0c-1.811039 0-11.330004-0.250022-20.916333-5.188277-13.550406-6.979884-21.043288-19.947337-21.117128-36.534277L15.85242 444.503824l0.034977-0.716384c0.119181-2.435446 0.867951-11.051483 5.499185-19.637724 6.968225-12.924703 19.740065-20.0432 35.962984-20.0432l160.928554 0c3.578033 0.012954 22.091306 0.744884 35.481076 13.966245 8.643241 8.534424 13.025748 20.162382 13.025748 34.561307l0 540.985043C266.724058 1004.17314 259.020017 1023.996114 230.289531 1023.996114zM41.810644 444.510301l33.171289 536.952307 0 0.56093c0 8.812945 3.636328 11.902593 6.803703 13.608701 4.391575 2.366787 9.311694 2.454877 9.360921 2.454877l139.142974 0c3.828054 0 10.278099-0.60368 10.585121-4.639006L240.874651 452.634067c0-7.315405-1.739789-12.589182-5.320413-16.124464-6.359363-6.280341-17.256688-6.492795-17.365505-6.49409l-160.840464 0c-8.539605 0-11.442709 3.250284-13.157884 6.430613C42.455778 439.664023 41.946666 443.186351 41.810644 444.510301z" p-id="13627"></path></svg>