<?xml version="1.0" standalone="no"?><!DOCTYPE svg PUBLIC "-//W3C//DTD SVG 1.1//EN" "http://www.w3.org/Graphics/SVG/1.1/DTD/svg11.dtd"><svg t="1547554635758" class="icon" style="" viewBox="0 0 1024 1024" version="1.1" xmlns="http://www.w3.org/2000/svg" p-id="10829" xmlns:xlink="http://www.w3.org/1999/xlink" width="200" height="200"><defs><style type="text/css"></style></defs><path d="M980.48 253.44c-68.096-141.312-216.576-232.448-378.88-232.448h-179.2c-162.304 0-310.784 91.136-378.88 232.448C14.848 312.832 0 376.832 0 438.784c0 61.952 14.848 125.952 43.52 185.344 68.096 141.312 216.576 232.448 378.88 232.448h13.824c12.288 0 22.016 10.752 22.016 23.552v89.088c0 11.776 6.144 22.528 15.872 29.184 5.632 3.584 11.776 5.12 17.92 5.12 5.12 0 10.24-1.024 14.848-3.584 58.88-28.672 171.52-94.72 225.28-130.048 122.88-81.408 199.168-144.384 247.808-245.76 28.672-59.392 43.52-123.392 43.52-185.344 0.512-61.952-14.336-125.952-43.008-185.344z m-61.44 340.992c-41.984 87.04-111.104 143.872-223.744 218.112-38.912 25.6-111.616 69.12-168.448 100.352v-32.768c0-50.688-40.448-92.16-90.112-92.16h-13.824C286.72 787.968 162.304 711.68 105.984 593.92c-24.064-50.176-36.864-103.936-36.864-155.648 0-51.712 12.8-105.472 36.864-155.648 56.832-117.76 181.248-194.048 317.44-194.048h179.2c136.192 0 260.608 76.288 317.44 194.048 24.064 50.176 36.864 103.936 36.864 155.648-1.024 52.224-13.824 105.984-37.888 156.16z" p-id="10830"></path></svg>