<?xml version="1.0" standalone="no"?><!DOCTYPE svg PUBLIC "-//W3C//DTD SVG 1.1//EN" "http://www.w3.org/Graphics/SVG/1.1/DTD/svg11.dtd"><svg t="1547554593734" class="icon" style="" viewBox="0 0 1024 1024" version="1.1" xmlns="http://www.w3.org/2000/svg" p-id="8261" xmlns:xlink="http://www.w3.org/1999/xlink" width="200" height="200"><defs><style type="text/css"></style></defs><path d="M784.422367 304.805278l-130.316027 0c-12.046312 0-21.794772 9.7587-21.794772 21.794772 0 12.034024 9.748461 21.792724 21.794772 21.792724l130.316027 0c36.05292 0 65.380221 29.329349 65.380221 65.382269l0 501.257237c0 36.05292-29.327301 65.380221-65.380221 65.380221L239.577633 980.412503c-36.054968 0-65.382269-29.327301-65.382269-65.380221L174.195364 413.775044c0-36.054968 29.329349-65.382269 65.382269-65.382269l152.598223 0c12.036072 0 21.794772-9.756652 21.794772-21.792724s-9.7587-21.794772-21.794772-21.794772l-152.598223 0c-60.082056 0-108.969766 48.88771-108.969766 108.969766l0 501.255189c0 60.082056 48.88771 108.969766 108.969766 108.969766l544.844734 0c60.082056 0 108.967718-48.88771 108.969766-108.967718L893.392133 413.775044C893.392133 353.692989 844.504423 304.805278 784.422367 304.805278z" p-id="8262"></path><path d="M364.542247 224.579135l136.560367-147.482329 0 599.565137c0 12.036072 9.756652 21.794772 21.792724 21.794772s21.792724-9.756652 21.792724-21.794772L544.688063 77.090662l136.576751 147.488473c4.276215 4.630519 10.129388 6.981618 15.98256 6.981618 5.298165 0 10.618859-1.914876 14.813154-5.799924 8.833006-8.183792 9.365485-21.974996 1.171454-30.808002L538.881994 6.672371c-8.214512-8.896494-23.719889-8.896494-31.977408 0L332.554599 194.952826c-8.173552 8.833006-7.641073 22.624211 1.191934 30.808002C342.557011 233.911852 356.348215 233.389613 364.542247 224.579135z" p-id="8263"></path></svg>