<?xml version="1.0" standalone="no"?><!DOCTYPE svg PUBLIC "-//W3C//DTD SVG 1.1//EN" "http://www.w3.org/Graphics/SVG/1.1/DTD/svg11.dtd"><svg t="1547516951114" class="icon" style="" viewBox="0 0 1024 1024" version="1.1" xmlns="http://www.w3.org/2000/svg" p-id="28704" xmlns:xlink="http://www.w3.org/1999/xlink" width="200" height="200"><defs><style type="text/css"></style></defs><path d="M928.9 399.7l-24.7-3.6-260.8 267.1c-16 16.4-42.4 16.7-58.8 0.7s-16.7-42.4-0.7-58.8l218.5-223.7-75.3-10.9-274.8 281.3c-33.9 34.7-90 35.4-124.7 1.5s-35.4-90-1.5-124.7l293.1-300.2-41.2-83.6c-27-54.7-105-54.7-132 0l-91.3 185c-10.7 21.7-31.4 36.8-55.4 40.3L95.1 399.7c-60.4 8.8-84.5 83-40.8 125.5l147.7 144c17.3 16.9 25.3 41.3 21.2 65.1l-34.9 203.4c-10.3 60.1 52.8 106 106.8 77.6l182.6-96c21.4-11.3 47.1-11.3 68.5 0l182.6 96c54 28.4 117.1-17.5 106.8-77.6l-34.9-203.4c-4.1-23.9 3.8-48.2 21.2-65.1l147.7-144c43.8-42.5 19.7-116.7-40.7-125.5z" p-id="28705"></path></svg>