<?xml version="1.0" standalone="no"?><!DOCTYPE svg PUBLIC "-//W3C//DTD SVG 1.1//EN" "http://www.w3.org/Graphics/SVG/1.1/DTD/svg11.dtd"><svg t="1547516968963" class="icon" style="" viewBox="0 0 1024 1024" version="1.1" xmlns="http://www.w3.org/2000/svg" p-id="28885" xmlns:xlink="http://www.w3.org/1999/xlink" width="200" height="200"><defs><style type="text/css"></style></defs><path d="M907.8 460.5h-602l605.3-179c17.7-5.2 27.9-24 22.7-41.7L888.9 88c-5.2-17.7-24-27.9-41.7-22.7L87.2 290c-17.7 5.2-27.9 24-22.7 41.7l44.9 151.8c0.1 0.4 0.3 0.8 0.5 1.2-5.4 8.3-8.6 18.2-8.6 28.8V971c0 29.2 23.9 53 53 53h753.6c29.2 0 53-23.9 53-53V513.5c0-29.2-23.9-53-53.1-53z m-74.1-345.1c8.7-2.6 17.9 2.4 20.4 11.1l29.5 99.8c2.6 8.7-2.4 17.9-11.1 20.4l-39.3 11.6-3-142 3.5-0.9z m-80.8 23.9l3 142-70.8 20.9-3-142 70.8-20.9z m-148.1 43.8l3 142-68.9 20.4-3-142 68.9-20.4z m-146.2 43.3l3 142-68.9 20.4-3-142 68.9-20.4z m-146.3 43.2l3 142-68.9 20.4-3-142 68.9-20.4z m-186.6 55.2l40.4-11.9 3 142-4.6 1.4c-8.7 2.6-17.9-2.4-20.4-11.1l-29.5-99.8c-2.6-8.9 2.4-18.1 11.1-20.6z m499 445.6L494.3 876.8c-27.6 22.5-68.9 2.9-68.9-32.7V631.2c0-35.6 41.3-55.2 68.9-32.7l130.4 106.4c20.7 16.9 20.7 48.6 0 65.5z" p-id="28886"></path></svg>