<?xml version="1.0" standalone="no"?><!DOCTYPE svg PUBLIC "-//W3C//DTD SVG 1.1//EN" "http://www.w3.org/Graphics/SVG/1.1/DTD/svg11.dtd"><svg t="1547788515057" class="icon" style="" viewBox="0 0 1024 1024" version="1.1" xmlns="http://www.w3.org/2000/svg" p-id="31776" xmlns:xlink="http://www.w3.org/1999/xlink" width="200" height="200"><defs><style type="text/css"></style></defs><path d="M64 204.8a35.2 35.2 0 0 1 0-70.4h597.312a35.2 35.2 0 0 1 0 70.4H64z m0 226.88a35.2 35.2 0 0 1 0-70.4h597.312a35.2 35.2 0 0 1 0 70.4H64z m0 226.944a35.2 35.2 0 0 1 0-70.4h597.312a35.2 35.2 0 0 1 0 70.4H64z m0 226.88a35.2 35.2 0 0 1 0-70.4h597.312a35.2 35.2 0 0 1 0 70.4H64z m870.016-222.08a35.2 35.2 0 1 1 51.968 47.552l-149.376 163.136a35.2 35.2 0 0 1-61.12-23.808V169.6a35.2 35.2 0 0 1 70.4 0v590.144l88.128-96.32z" fill="#1E2D3B" p-id="31777"></path></svg>