<?xml version="1.0" standalone="no"?><!DOCTYPE svg PUBLIC "-//W3C//DTD SVG 1.1//EN" "http://www.w3.org/Graphics/SVG/1.1/DTD/svg11.dtd"><svg t="1547516988582" class="icon" style="" viewBox="0 0 1024 1024" version="1.1" xmlns="http://www.w3.org/2000/svg" p-id="29617" xmlns:xlink="http://www.w3.org/1999/xlink" width="200" height="200"><defs><style type="text/css"></style></defs><path d="M983.712887 312.66153a512.039518 512.039518 0 1 0-919.249686 448.150366L50.986074 943.803368A71.886711 71.886711 0 0 0 132.853426 1020.243339L332.688045 991.65826a512.22217 512.22217 0 0 0 651.024842-678.99673z m-60.079547 373.132474a447.263199 447.263199 0 0 1-575.171967 242.027291 32.616475 32.616475 0 0 0-16.56917-1.943942L123.629487 955.675765a6.653761 6.653761 0 0 1-7.580069-7.071252l14.207737-192.90688a32.616475 32.616475 0 0 0-4.357561-18.839276 446.676102 446.676102 0 1 1 797.681559-51.025213z" p-id="29618"></path><path d="M725.012053 479.344764h-180.434339V298.897377a32.616475 32.616475 0 1 0-65.23295 0v180.447387H298.897377a32.616475 32.616475 0 0 0 0 65.23295h180.447387v180.434339a32.616475 32.616475 0 0 0 65.23295 0v-180.434339h180.434339a32.616475 32.616475 0 0 0 0-65.23295z" p-id="29619"></path></svg>