<?xml version="1.0" standalone="no"?><!DOCTYPE svg PUBLIC "-//W3C//DTD SVG 1.1//EN" "http://www.w3.org/Graphics/SVG/1.1/DTD/svg11.dtd"><svg t="1547516613441" class="icon" style="" viewBox="0 0 1024 1024" version="1.1" xmlns="http://www.w3.org/2000/svg" p-id="18312" xmlns:xlink="http://www.w3.org/1999/xlink" width="200" height="200"><defs><style type="text/css"></style></defs><path d="M766.3616 416.768l-246.3744-147.2512c-10.0352-5.9392-23.1424-2.8672-29.2864 7.168-6.3488 10.24-3.072 23.552 7.168 29.696l248.0128 148.2752c21.9136 11.264 35.6352 34.2016 35.6352 59.5968 0 25.3952-13.7216 48.3328-35.4304 59.5968l-399.7696 239.0016-0.6144 0.4096c-9.8304 4.9152-20.8896 10.4448-33.9968 10.4448-37.0688 0-66.3552-30.9248-66.3552-70.4512v-477.7984c0-39.5264 29.0816-70.4512 66.3552-70.4512 13.1072 0 24.3712 5.5296 33.9968 10.4448l0.8192 0.4096 41.984 24.9856c10.0352 5.9392 23.1424 2.8672 29.2864-7.168 6.3488-10.24 3.072-23.552-7.168-29.696l-43.6224-26.0096c-15.7696-9.4208-32.1536-13.5168-55.0912-13.5168-28.4672 0-55.0912 11.264-75.1616 31.744-20.48 20.8896-31.5392 48.9472-31.5392 79.0528V753.0496c0 30.1056 11.264 58.1632 31.5392 79.0528 20.0704 20.48 46.6944 31.744 75.1616 31.744 20.0704 0 37.888-6.9632 54.8864-13.7216 1.024-0.4096 2.048-1.024 3.072-1.4336l396.6976-237.1584c33.3824-20.0704 51.6096-53.0432 51.6096-93.184-0.2048-43.008-20.48-82.944-51.8144-101.5808z" fill="#040000" p-id="18313"></path></svg>